PathFileType	4	(X/Y/Z)	/Users/itak/Documents/Research/Walk-IL/dataset/trc/00498_00183.trc
DataRate	CameraRate	NumFrames	NumMarkers	Units	OrigDataRate	OrigDataStartFrame	OrigNumFrames
100.000000	100.000000	4	56	mm	100.000000	84	677
Frame#	Time	RPSI			LPSI			L3			STRN			T10			C7			CLAV			RBAK			LBAK			LSHO			LUPA			LAEL			LAOL			LWTS			LWPS			LFRA			LIFD			LHPS			LHTS			RSHO			RUPA			RAEL			RAOL			RWTS			RWPS			RFRA			RIFD			RHTS			RHPS			RBHD			LFHD			RFHD			LBHD			LHIP			RHIP			RASI			LASI			LKNE			LTHI			LANK			LTIP			LTOE			LMT1			LMT5			LHEE			RKNE			RTHI			RANK			RTIP			RTOE			RMT1			RMT5			RHEE			*53			*54			*55			
		X1	Y1	Z1	X2	Y2	Z2	X3	Y3	Z3	X4	Y4	Z4	X5	Y5	Z5	X6	Y6	Z6	X7	Y7	Z7	X8	Y8	Z8	X9	Y9	Z9	X10	Y10	Z10	X11	Y11	Z11	X12	Y12	Z12	X13	Y13	Z13	X14	Y14	Z14	X15	Y15	Z15	X16	Y16	Z16	X17	Y17	Z17	X18	Y18	Z18	X19	Y19	Z19	X20	Y20	Z20	X21	Y21	Z21	X22	Y22	Z22	X23	Y23	Z23	X24	Y24	Z24	X25	Y25	Z25	X26	Y26	Z26	X27	Y27	Z27	X28	Y28	Z28	X29	Y29	Z29	X30	Y30	Z30	X31	Y31	Z31	X32	Y32	Z32	X33	Y33	Z33	X34	Y34	Z34	X35	Y35	Z35	X36	Y36	Z36	X37	Y37	Z37	X38	Y38	Z38	X39	Y39	Z39	X40	Y40	Z40	X41	Y41	Z41	X42	Y42	Z42	X43	Y43	Z43	X44	Y44	Z44	X45	Y45	Z45	X46	Y46	Z46	X47	Y47	Z47	X48	Y48	Z48	X49	Y49	Z49	X50	Y50	Z50	X51	Y51	Z51	X52	Y52	Z52	X53	Y53	Z53	X54	Y54	Z54	X55	Y55	Z55	X56	Y56	Z56	

85	0.84	-1115.564819335938	976.79833984375	-408.1718444824219	-1053.290771484375	974.7431640625	-515.0731811523438	-1097.081420898438	1034.904907226562	-471.8794250488281	-897.0195922851562	1202.219970703125	-379.2141418457031	-1113.505615234375	1141.13232421875	-475.28857421875	-1074.535400390625	1371.761840820312	-454.9981079101562	-931.3777465820312	1296.815063476562	-394.6715087890625	-1151.779174804688	1249.238647460938	-395.9308166503906	-1061.85791015625	1318.440185546875	-545.214599609375	-945.3763427734375	1365.162475585938	-574.771484375	-932.50390625	1238.358642578125	-635.5797119140625	-918.0980834960938	1028.26708984375	-656.0462036132812	-1010.67333984375	1020.602294921875	-623.6434326171875	-844.5565795898438	845.0745849609375	-583.85498046875	-902.4117431640625	806.9730224609375	-647.8553466796875	-900.0475463867188	952.8976440429688	-649.93017578125	-845.1951904296875	688.4773559570312	-565.9338989257812	-880.3878173828125	753.241943359375	-632.4949951171875	-827.75732421875	766.3177490234375	-595.4568481445312	-1083.175903320312	1365.385131835938	-296.2615661621094	-1119.615112304688	1296.592651367188	-249.649658203125	-1112.44482421875	1028.128784179688	-204.7332305908203	-1152.55859375	1009.9091796875	-254.5776672363281	-994.6911010742188	831.51416015625	-212.2627868652344	-1078.328491210938	804.9402465820312	-186.8825836181641	-1106.040161132812	973.77490234375	-197.2057647705078	-986.013671875	672.22412109375	-214.9981536865234	-982.2660522460938	737.3902587890625	-187.5627899169922	-1053.227294921875	732.0562744140625	-181.9208831787109	-1085.25439453125	1519.445068359375	-366.9444580078125	-916.7510375976562	1601.100830078125	-439.039306640625	-975.3125610351562	1591.826293945312	-325.9217224121094	-1025.167846679688	1524.61767578125	-513.9828491210938	-897.9180908203125	897.6990966796875	-578.4789428710938	-1088.725952148438	872.6919555664062	-252.9265899658203	-965.5457153320312	912.8753662109375	-259.052001953125	-849.8600463867188	926.213623046875	-472.3245544433594	-917.6348876953125	473.7644958496094	-554.7151489257812	-892.2149047851562	631.3593139648438	-563.7416381835938	-1006.696655273438	49.78409194946289	-595.8980712890625	-948.3909912109375	325.3081665039062	-575.7147827148438	-869.9923095703125	39.77270126342773	-443.3865661621094	-952.7654418945312	43.6075553894043	-456.7860412597656	-906.1026000976562	44.41703033447266	-547.924072265625	-1079.360961914062	48.51260375976562	-566.6878662109375	-1082.411865234375	484.0892944335938	-278.3872375488281	-1069.489013671875	742.8536376953125	-237.7157897949219	-1129.894409179688	49.11178588867188	-333.5016174316406	-1078.16015625	340.0920715332031	-296.1817626953125	-926.9849243164062	44.8833122253418	-308.6998291015625	-978.13037109375	50.17863464355469	-364.6054992675781	-1027.677978515625	46.49109268188477	-280.8770751953125	-1163.0048828125	39.72420883178711	-395.8534851074219	nan	nan	nan	nan	nan	nan	nan	nan	nan	
86	0.85	-1115.35302734375	976.795166015625	-408.2113952636719	-1053.047607421875	974.7321166992188	-515.1093139648438	-1096.734741210938	1034.847534179688	-471.9325256347656	-896.7692260742188	1202.189697265625	-379.24658203125	-1113.2734375	1141.143798828125	-475.3087158203125	-1074.242431640625	1371.737426757812	-454.9357604980469	-931.111328125	1296.745727539062	-394.6444702148438	-1151.516845703125	1249.246704101562	-395.9199523925781	-1061.546752929688	1318.422973632812	-545.2798461914062	-945.0657348632812	1365.146118164062	-574.7738647460938	-932.1508178710938	1238.348388671875	-635.595947265625	-917.8788452148438	1028.265747070312	-656.0805053710938	-1010.436096191406	1020.55908203125	-623.6989135742188	-844.319091796875	845.027587890625	-583.9486694335938	-902.09765625	806.9207763671875	-647.9197998046875	-899.8524780273438	952.9225463867188	-650.0040283203125	-845.0216674804688	688.4635620117188	-566.0313720703125	-880.0853271484375	753.2593994140625	-632.5731811523438	-827.42578125	766.3630981445312	-595.5875854492188	-1082.888061523438	1365.353759765625	-296.2317810058594	-1119.365356445312	1296.570556640625	-249.6282043457031	-1112.237548828125	1028.089599609375	-204.7820739746094	-1152.327392578125	1009.887268066406	-254.6377410888672	-994.4797973632812	831.422607421875	-212.3295745849609	-1078.151489257812	804.8792724609375	-186.9943084716797	-1105.857055664062	973.7313842773438	-197.2586212158203	-985.8302001953125	672.1473388671875	-215.1459655761719	-982.0934448242188	737.3184814453125	-187.6521148681641	-1053.071166992188	732.0111694335938	-182.0005645751953	-1084.92578125	1519.417236328125	-366.9129333496094	-916.5055541992188	1601.102416992188	-439.0643310546875	-975.0419921875	1591.83544921875	-326.0064086914062	-1024.915405273438	1524.546264648438	-513.9813232421875	-897.726318359375	897.6190795898438	-578.5506591796875	-1088.517211914062	872.6875	-253.0521240234375	-965.3036499023438	912.849365234375	-259.1213684082031	-849.6474609375	926.1871337890625	-472.4421691894531	-917.516845703125	473.720458984375	-554.7994995117188	-892.0364990234375	631.3287963867188	-563.8032836914062	-1006.695373535156	49.77495193481445	-595.8889770507812	-948.281494140625	325.2834167480469	-575.7355346679688	-869.991455078125	39.76860809326172	-443.384521484375	-952.767822265625	43.6080207824707	-456.78125	-906.1043701171875	44.42050552368164	-547.9224243164062	-1079.362915039062	48.51560592651367	-566.6842041015625	-1082.259643554688	484.0865783691406	-278.4821166992188	-1069.330200195312	742.8629150390625	-237.7228088378906	-1129.892700195312	49.11983489990234	-333.5015563964844	-1078.0966796875	340.1030883789062	-296.2026062011719	-926.98095703125	44.89645385742188	-308.6856994628906	-978.1314697265625	50.17578125	-364.6179809570312	-1027.676879882812	46.49181365966797	-280.8795776367188	-1162.9951171875	39.7239875793457	-395.8682250976562	nan	nan	nan	nan	nan	nan	nan	nan	nan	
87	0.86	-1115.140869140625	976.791015625	-408.2531127929688	-1052.793823242188	974.7220458984375	-515.1651000976562	-1096.3798828125	1034.79443359375	-471.9857788085938	-896.5277709960938	1202.162109375	-379.2686157226562	-1113.041259765625	1141.150024414062	-475.3262023925781	-1073.959228515625	1371.70751953125	-454.8638610839844	-930.8472290039062	1296.679565429688	-394.6273803710938	-1151.247436523438	1249.251831054688	-395.9304504394531	-1061.24462890625	1318.402954101562	-545.3406372070312	-944.7439575195312	1365.132446289062	-574.782470703125	-931.7899780273438	1238.333374023438	-635.59716796875	-917.6620483398438	1028.259887695312	-656.1217041015625	-1010.208618164062	1020.534362792969	-623.7525634765625	-844.0824584960938	844.9850463867188	-584.0376586914062	-901.77685546875	806.8761596679688	-647.9904174804688	-899.6465454101562	952.9453735351562	-650.083251953125	-844.8073120117188	688.453125	-566.1473999023438	-879.7646484375	753.24658203125	-632.6077880859375	-827.1219482421875	766.4146728515625	-595.6751098632812	-1082.609497070312	1365.329833984375	-296.2153625488281	-1119.11181640625	1296.549072265625	-249.6277008056641	-1112.040771484375	1028.051635742188	-204.8407592773438	-1152.099487304688	1009.865600585938	-254.7158508300781	-994.27490234375	831.331787109375	-212.3968048095703	-1077.998779296875	804.8184814453125	-187.0993041992188	-1105.685913085938	973.688232421875	-197.3171234130859	-985.6549682617188	672.0698852539062	-215.3019561767578	-981.9383544921875	737.2484130859375	-187.7402648925781	-1052.9169921875	731.9664306640625	-182.0999450683594	-1084.59716796875	1519.394897460938	-366.88916015625	-916.2394409179688	1601.0927734375	-439.0730590820312	-974.7581176757812	1591.853759765625	-326.076416015625	-1024.64990234375	1524.476440429688	-513.9735107421875	-897.5276489257812	897.5286865234375	-578.631103515625	-1088.32666015625	872.6732788085938	-253.182861328125	-965.0716552734375	912.8253784179688	-259.1850891113281	-849.430908203125	926.1558837890625	-472.5533447265625	-917.4016723632812	473.6732482910156	-554.8733520507812	-891.86181640625	631.300048828125	-563.861328125	-1006.694946289062	49.76565170288086	-595.8798828125	-948.1620483398438	325.2557373046875	-575.745361328125	-869.9922485351562	39.76398849487305	-443.3805236816406	-952.7703857421875	43.60806274414062	-456.775634765625	-906.1063842773438	44.42621994018555	-547.9207153320312	-1079.365112304688	48.52009582519531	-566.6798095703125	-1082.105834960938	484.0835266113281	-278.5811767578125	-1069.16796875	742.8742065429688	-237.7473449707031	-1129.89208984375	49.12919235229492	-333.5005187988281	-1078.027954101562	340.1156616210938	-296.2273559570312	-926.9772338867188	44.90790939331055	-308.6732177734375	-978.1318969726562	50.17261505126953	-364.6282043457031	-1027.67578125	46.49203872680664	-280.882568359375	-1162.985107421875	39.72563934326172	-395.8832702636719	nan	nan	nan	nan	nan	nan	nan	nan	nan	
88	0.87	-1114.923706054688	976.7901611328125	-408.3018188476562	-1052.526245117188	974.714599609375	-515.2471313476562	-1096.01806640625	1034.747314453125	-472.0374450683594	-896.2923583984375	1202.135009765625	-379.2804565429688	-1112.806274414062	1141.150146484375	-475.3467712402344	-1073.685913085938	1371.675048828125	-454.7886657714844	-930.5867919921875	1296.617797851562	-394.6217956542969	-1150.972412109375	1249.253173828125	-395.9621276855469	-1060.950927734375	1318.384155273438	-545.3934326171875	-944.4113159179688	1365.123291015625	-574.798095703125	-931.4353637695312	1238.316772460938	-635.5847778320312	-917.4428100585938	1028.25244140625	-656.169921875	-1009.984924316406	1020.530944824219	-623.8035888671875	-843.84130859375	844.9517822265625	-584.1159057617188	-901.4560546875	806.8406982421875	-648.0660400390625	-899.4230346679688	952.9649658203125	-650.1652221679688	-844.5494995117188	688.4456176757812	-566.2798461914062	-879.4447631835938	753.2042236328125	-632.6092529296875	-826.8524169921875	766.4656372070312	-595.720947265625	-1082.34033203125	1365.312255859375	-296.2143859863281	-1118.853759765625	1296.526977539062	-249.6526641845703	-1111.85400390625	1028.015380859375	-204.9089508056641	-1151.87548828125	1009.84423828125	-254.8116607666016	-994.0775146484375	831.245361328125	-212.4653778076172	-1077.866333007812	804.7591552734375	-187.1980743408203	-1105.525512695312	973.646484375	-197.3801116943359	-985.4886474609375	671.9927978515625	-215.4595642089844	-981.7978515625	737.1830444335938	-187.8269653320312	-1052.76416015625	731.9228515625	-182.2167510986328	-1084.27197265625	1519.3779296875	-366.8756408691406	-915.9493408203125	1601.068481445312	-439.0672302246094	-974.4584350585938	1591.879028320312	-326.1254272460938	-1024.368774414062	1524.412963867188	-513.9617919921875	-897.3167724609375	897.435791015625	-578.71923828125	-1088.152587890625	872.6483764648438	-253.3145751953125	-964.8504638671875	912.8047485351562	-259.2428588867188	-849.2094116210938	926.1198120117188	-472.6566162109375	-917.285400390625	473.6248779296875	-554.9332885742188	-891.6844482421875	631.2763671875	-563.912109375	-1006.695190429688	49.75708770751953	-595.8715209960938	-948.0364379882812	325.2259521484375	-575.7464599609375	-869.9948120117188	39.75797271728516	-443.3748168945312	-952.7726440429688	43.60707473754883	-456.7700805664062	-906.1083374023438	44.43311309814453	-547.919189453125	-1079.367431640625	48.52605438232422	-566.67529296875	-1081.953735351562	484.0807189941406	-278.6802978515625	-1069.001831054688	742.8853149414062	-237.7909393310547	-1129.891845703125	49.13957595825195	-333.4997253417969	-1077.954833984375	340.1296081542969	-296.2561950683594	-926.975830078125	44.91587829589844	-308.6636352539062	-978.1307983398438	50.16983795166016	-364.636474609375	-1027.674438476562	46.49225997924805	-280.8863220214844	-1162.9755859375	39.72969055175781	-395.8973388671875	nan	nan	nan	nan	nan	nan	nan	nan	nan	
